<svg width="80" height="80" viewBox="0 0 80 80" fill="none" xmlns="http://www.w3.org/2000/svg">
<path d="M74.375 8.75H5.625C4.46507 8.75128 3.35302 9.21263 2.53282 10.0328C1.71263 10.853 1.25128 11.9651 1.25 13.125V56.875C1.25128 58.0349 1.71263 59.147 2.53282 59.9672C3.35302 60.7874 4.46507 61.2487 5.625 61.25H30.6531L29.1531 65H22.5C22.1685 65 21.8505 65.1317 21.6161 65.3661C21.3817 65.6005 21.25 65.9185 21.25 66.25V68.75H13.75C13.4185 68.75 13.1005 68.8817 12.8661 69.1161C12.6317 69.3505 12.5 69.6685 12.5 70C12.5 70.3315 12.6317 70.6495 12.8661 70.8839C13.1005 71.1183 13.4185 71.25 13.75 71.25H66.25C66.5815 71.25 66.8995 71.1183 67.1339 70.8839C67.3683 70.6495 67.5 70.3315 67.5 70C67.5 69.6685 67.3683 69.3505 67.1339 69.1161C66.8995 68.8817 66.5815 68.75 66.25 68.75H58.75V66.25C58.75 65.9185 58.6183 65.6005 58.3839 65.3661C58.1495 65.1317 57.8315 65 57.5 65H50.8469L49.3469 61.25H74.375C75.5349 61.2487 76.647 60.7874 77.4672 59.9672C78.2874 59.147 78.7487 58.0349 78.75 56.875V13.125C78.7487 11.9651 78.2874 10.853 77.4672 10.0328C76.647 9.21263 75.5349 8.75128 74.375 8.75ZM56.25 67.5V68.75H23.75V67.5H56.25ZM31.8469 65L33.3469 61.25H46.6531L48.1531 65H31.8469ZM76.25 56.875C76.2496 57.3722 76.0519 57.8488 75.7004 58.2004C75.3488 58.5519 74.8722 58.7496 74.375 58.75H5.625C5.12785 58.7496 4.65117 58.5519 4.29963 58.2004C3.94809 57.8488 3.75041 57.3722 3.75 56.875V53.75H76.25V56.875ZM76.25 51.25H3.75V13.125C3.75041 12.6278 3.94809 12.1512 4.29963 11.7996C4.65117 11.4481 5.12785 11.2504 5.625 11.25H74.375C74.8722 11.2504 75.3488 11.4481 75.7004 11.7996C76.0519 12.1512 76.2496 12.6278 76.25 13.125V51.25Z" fill="#FFB400"/>
<path d="M34.3142 41.0448C34.4515 41.1349 34.6051 41.1971 34.7664 41.2277C34.9277 41.2584 35.0934 41.257 35.2541 41.2237C35.4149 41.1903 35.5674 41.1256 35.7032 41.0332C35.8389 40.9409 35.9551 40.8227 36.0452 40.6855L45.8889 25.6855C46.0708 25.4083 46.1352 25.0702 46.0679 24.7456C46.0005 24.421 45.807 24.1365 45.5299 23.9545C45.2527 23.7726 44.9146 23.7082 44.59 23.7756C44.2654 23.8429 43.9808 24.0364 43.7989 24.3136L33.9552 39.3136C33.865 39.4508 33.8028 39.6045 33.7721 39.7658C33.7414 39.9271 33.7427 40.0928 33.776 40.2536C33.8094 40.4144 33.8741 40.567 33.9664 40.7028C34.0588 40.8385 34.1769 40.9548 34.3142 41.0448Z" fill="#FFB400"/>
<path d="M47.95 40.9604C48.2047 41.1726 48.5332 41.2749 48.8634 41.2449C49.1935 41.2149 49.4982 41.0549 49.7104 40.8002L55.9604 33.3002C56.1476 33.0756 56.2501 32.7924 56.2501 32.5001C56.2501 32.2077 56.1476 31.9245 55.9604 31.6999L49.7104 24.1999C49.6057 24.0727 49.4768 23.9675 49.3313 23.8903C49.1858 23.8131 49.0264 23.7655 48.8624 23.7501C48.6983 23.7347 48.5329 23.7519 48.3755 23.8007C48.2182 23.8494 48.072 23.9288 47.9454 24.0343C47.8189 24.1398 47.7144 24.2692 47.638 24.4152C47.5617 24.5612 47.5149 24.7208 47.5004 24.8849C47.486 25.049 47.5041 25.2144 47.5538 25.3714C47.6034 25.5285 47.6836 25.6742 47.7898 25.8002L53.3729 32.5001L47.7898 39.1999C47.5776 39.4546 47.4753 39.7832 47.5053 40.1133C47.5353 40.4435 47.6953 40.7482 47.95 40.9604Z" fill="#FFB400"/>
<path d="M30.2897 40.8002C30.3944 40.9274 30.5233 41.0326 30.6688 41.1098C30.8143 41.187 30.9737 41.2346 31.1377 41.25C31.3018 41.2654 31.4672 41.2482 31.6246 41.1994C31.7819 41.1507 31.9281 41.0713 32.0547 40.9658C32.1812 40.8603 32.2857 40.7309 32.3621 40.5849C32.4384 40.439 32.4852 40.2793 32.4997 40.1152C32.5141 39.9511 32.496 39.7858 32.4463 39.6287C32.3967 39.4716 32.3165 39.3259 32.2103 39.1999L26.6272 32.5001L32.2103 25.8002C32.3165 25.6742 32.3967 25.5285 32.4463 25.3714C32.496 25.2144 32.5141 25.049 32.4997 24.8849C32.4852 24.7208 32.4384 24.5612 32.3621 24.4152C32.2857 24.2692 32.1812 24.1398 32.0547 24.0343C31.9281 23.9288 31.7819 23.8494 31.6246 23.8007C31.4672 23.7519 31.3018 23.7347 31.1377 23.7501C30.9737 23.7655 30.8143 23.8131 30.6688 23.8903C30.5233 23.9675 30.3944 24.0727 30.2897 24.1999L24.0397 31.6999C23.8525 31.9245 23.75 32.2077 23.75 32.5001C23.75 32.7924 23.8525 33.0756 24.0397 33.3002L30.2897 40.8002Z" fill="#FFB400"/>
</svg>
