<svg width="29" height="31" viewBox="0 0 29 31" fill="none" xmlns="http://www.w3.org/2000/svg">
<g clip-path="url(#clip0_2_2686)">
<path d="M2.4165 6.45825L10.8748 2.58325L18.1248 6.45825L25.741 2.96946C25.8329 2.92733 25.9332 2.91026 26.0328 2.91979C26.1325 2.92931 26.2283 2.96513 26.3118 3.02403C26.3953 3.08293 26.4638 3.16306 26.5111 3.25724C26.5585 3.35142 26.5833 3.4567 26.5832 3.56363V24.5416L18.1248 28.4166L10.8748 24.5416L3.25871 28.0304C3.16677 28.0725 3.06649 28.0896 2.96686 28.0801C2.86723 28.0705 2.77137 28.0347 2.68788 27.9758C2.60439 27.9169 2.53589 27.8368 2.48853 27.7426C2.44116 27.6484 2.41642 27.5431 2.4165 27.4362V6.45825ZM18.1248 25.5284V9.26892L18.0463 9.30509L10.8748 5.47142V21.7309L10.9534 21.6947L18.1248 25.5284Z" fill="#2B2B2B"/>
</g>
<defs>
<clipPath id="clip0_2_2686">
<rect width="29" height="31" fill="white"/>
</clipPath>
</defs>
</svg>
