<svg width="29" height="29" viewBox="0 0 29 29" fill="none" xmlns="http://www.w3.org/2000/svg">
<g clip-path="url(#clip0_2_2706)">
<path d="M3.62484 3.625H25.3748C25.6953 3.625 26.0027 3.75231 26.2293 3.97891C26.4559 4.20552 26.5832 4.51286 26.5832 4.83333V24.1667C26.5832 24.4871 26.4559 24.7945 26.2293 25.0211C26.0027 25.2477 25.6953 25.375 25.3748 25.375H3.62484C3.30437 25.375 2.99702 25.2477 2.77042 25.0211C2.54381 24.7945 2.4165 24.4871 2.4165 24.1667V4.83333C2.4165 4.51286 2.54381 4.20552 2.77042 3.97891C2.99702 3.75231 3.30437 3.625 3.62484 3.625ZM14.5723 14.117L6.8245 7.53758L5.25971 9.37908L14.588 17.2997L23.7484 9.37304L22.1679 7.54483L14.5735 14.117H14.5723Z" fill="#2B2B2B"/>
</g>
<defs>
<clipPath id="clip0_2_2706">
<rect width="29" height="29" fill="white"/>
</clipPath>
</defs>
</svg>
